<?xml version="1.0" encoding="utf-8"?>
<!-- Generator: Adobe Illustrator 16.0.0, SVG Export Plug-In . SVG Version: 6.00 Build 0)  -->
<!DOCTYPE svg PUBLIC "-//W3C//DTD SVG 1.1//EN" "http://www.w3.org/Graphics/SVG/1.1/DTD/svg11.dtd">
<svg version="1.1" id="Layer_1" xmlns="http://www.w3.org/2000/svg" xmlns:xlink="http://www.w3.org/1999/xlink" x="0px" y="0px"
	 width="1663px" height="1398.52px" viewBox="64 128 1663 1398.52" enable-background="new 64 128 1663 1398.52"
	 xml:space="preserve">
<path fill="#7F7F7F" d="M1472,930v318c0,79.333-28.167,147.166-84.5,203.5c-56.333,56.333-124.167,84.5-203.5,84.5H352
	c-79.333,0-147.167-28.167-203.5-84.5C92.167,1395.166,64,1327.333,64,1248V416c0-79.334,28.167-147.167,84.5-203.5
	C204.833,156.166,272.667,128,352,128h832c42,0,81,8.333,117,25c10,4.666,16,12.333,18,23c2,11.333-1,21-9,29l-49,49
	c-6.667,6.666-14.333,10-23,10c-2,0-5-0.667-9-2c-15.333-4-30.333-6-45-6H352c-44,0-81.667,15.666-113,47
	c-31.333,31.333-47,69-47,113v832c0,44,15.667,81.666,47,113c31.333,31.333,69,47,113,47h832c44,0,81.667-15.667,113-47
	c31.333-31.334,47-69,47-113V994c0-8.667,3-16,9-22l64-64c6.667-6.667,14.333-10,23-10c4,0,8,1,12,3
	C1465.333,906.333,1472,916,1472,930z M1703,441l-814,814c-16,16-35,24-57,24s-41-8-57-24L345,825c-16-16-24-35-24-57s8-41,24-57
	l110-110c16-16,35-24,57-24s41,8,57,24l263,263l647-647c16-16,35-24,57-24s41,8,57,24l110,110c16,16,24,35,24,57S1719,425,1703,441z
	"/>
</svg>
